<mxfile host="app.diagrams.net" agent="Mozilla/5.0 (Windows NT 10.0; Win64; x64) AppleWebKit/537.36 (KHTML, like Gecko) Chrome/128.0.0.0 Safari/537.36" version="24.7.14">
  <diagram name="PÃ¡gina-1" id="6GSVt7Iq9XYI5ROrhrWV">
    <mxGraphModel dx="1194" dy="750" grid="1" gridSize="10" guides="1" tooltips="1" connect="1" arrows="1" fold="1" page="1" pageScale="1" pageWidth="827" pageHeight="1169" math="0" shadow="0">
      <root>
        <mxCell id="0" />
        <mxCell id="1" parent="0" />
        <mxCell id="cKEiQ9DskDoYqM71dqy4-2" value="Nome" style="ellipse;whiteSpace=wrap;html=1;align=center;" vertex="1" parent="1">
          <mxGeometry x="320" y="240" width="100" height="40" as="geometry" />
        </mxCell>
        <mxCell id="cKEiQ9DskDoYqM71dqy4-3" value="Sexo" style="ellipse;whiteSpace=wrap;html=1;align=center;" vertex="1" parent="1">
          <mxGeometry x="440" y="240" width="100" height="40" as="geometry" />
        </mxCell>
        <mxCell id="cKEiQ9DskDoYqM71dqy4-5" value="DataNasc" style="ellipse;whiteSpace=wrap;html=1;align=center;" vertex="1" parent="1">
          <mxGeometry x="560" y="240" width="100" height="40" as="geometry" />
        </mxCell>
        <mxCell id="cKEiQ9DskDoYqM71dqy4-6" value="NumMec" style="ellipse;whiteSpace=wrap;html=1;align=center;fontStyle=4;strokeColor=default;verticalAlign=middle;fontFamily=Helvetica;fontSize=12;fontColor=default;fillColor=default;" vertex="1" parent="1">
          <mxGeometry x="200" y="240" width="100" height="40" as="geometry" />
        </mxCell>
        <mxCell id="cKEiQ9DskDoYqM71dqy4-7" value="" style="endArrow=none;html=1;rounded=0;fontFamily=Helvetica;fontSize=12;fontColor=default;exitX=0.5;exitY=0;exitDx=0;exitDy=0;entryX=0.08;entryY=1;entryDx=0;entryDy=0;entryPerimeter=0;" edge="1" parent="1" source="cKEiQ9DskDoYqM71dqy4-6" target="cKEiQ9DskDoYqM71dqy4-12">
          <mxGeometry width="50" height="50" relative="1" as="geometry">
            <mxPoint x="345" y="160" as="sourcePoint" />
            <mxPoint x="400" y="110" as="targetPoint" />
          </mxGeometry>
        </mxCell>
        <mxCell id="cKEiQ9DskDoYqM71dqy4-9" value="" style="endArrow=none;html=1;rounded=0;fontFamily=Helvetica;fontSize=12;fontColor=default;exitX=0.5;exitY=0;exitDx=0;exitDy=0;entryX=0.37;entryY=0.975;entryDx=0;entryDy=0;entryPerimeter=0;" edge="1" parent="1" source="cKEiQ9DskDoYqM71dqy4-2" target="cKEiQ9DskDoYqM71dqy4-12">
          <mxGeometry width="50" height="50" relative="1" as="geometry">
            <mxPoint x="370" y="160" as="sourcePoint" />
            <mxPoint x="412" y="108" as="targetPoint" />
          </mxGeometry>
        </mxCell>
        <mxCell id="cKEiQ9DskDoYqM71dqy4-10" value="" style="endArrow=none;html=1;rounded=0;fontFamily=Helvetica;fontSize=12;fontColor=default;exitX=0.5;exitY=0;exitDx=0;exitDy=0;entryX=0.68;entryY=0.975;entryDx=0;entryDy=0;entryPerimeter=0;" edge="1" parent="1" source="cKEiQ9DskDoYqM71dqy4-3" target="cKEiQ9DskDoYqM71dqy4-12">
          <mxGeometry width="50" height="50" relative="1" as="geometry">
            <mxPoint x="414" y="180" as="sourcePoint" />
            <mxPoint x="455" y="110" as="targetPoint" />
          </mxGeometry>
        </mxCell>
        <mxCell id="cKEiQ9DskDoYqM71dqy4-11" value="" style="endArrow=none;html=1;rounded=0;fontFamily=Helvetica;fontSize=12;fontColor=default;exitX=0.5;exitY=0;exitDx=0;exitDy=0;entryX=0.9;entryY=1.025;entryDx=0;entryDy=0;entryPerimeter=0;" edge="1" parent="1" source="cKEiQ9DskDoYqM71dqy4-5" target="cKEiQ9DskDoYqM71dqy4-12">
          <mxGeometry width="50" height="50" relative="1" as="geometry">
            <mxPoint x="520" y="170" as="sourcePoint" />
            <mxPoint x="480" y="110" as="targetPoint" />
          </mxGeometry>
        </mxCell>
        <mxCell id="cKEiQ9DskDoYqM71dqy4-12" value="ALUNO" style="whiteSpace=wrap;html=1;align=center;strokeColor=default;verticalAlign=middle;fontFamily=Helvetica;fontSize=12;fontColor=default;fillColor=default;" vertex="1" parent="1">
          <mxGeometry x="390" y="70" width="100" height="40" as="geometry" />
        </mxCell>
      </root>
    </mxGraphModel>
  </diagram>
</mxfile>
